<svg xmlns="http://www.w3.org/2000/svg" version="1.0" preserveAspectRatio="xMidYMid meet" viewBox="130.52 423 763.48 163.1">

<g transform="translate(0.000000,1024.000000) scale(0.100000,-0.100000)" fill="#000000" stroke="none">
<path d="M1479 5988 c31 -78 52 -118 63 -118 40 -1 229 -32 298 -50 160 -41 314 -114 420 -199 30 -24 62 -49 70 -55 33 -25 -58 89 -115 143 -108 104 -262 189 -433 240 -80 24 -254 61 -288 61 -20 0 -22 -3 -15 -22z"/>
<path d="M3170 5975 c-249 -52 -438 -146 -578 -287 -63 -64 -90 -98 -119 -153 -14 -26 -10 -24 35 17 156 146 403 247 679 280 l102 11 25 71 c15 39 26 74 26 79 0 12 -49 7 -170 -18z"/>
<path d="M1309 5798 c5 -13 53 -122 106 -243 271 -614 351 -796 429 -975 l84 -195 82 -3 81 -3 15 38 c9 21 45 103 80 182 35 79 64 148 64 152 0 14 -93 219 -99 219 -3 0 -35 -68 -71 -150 -56 -131 -80 -173 -80 -141 0 4 -88 207 -195 450 -107 243 -202 458 -210 478 l-15 36 112 -6 c390 -23 659 -169 764 -415 l25 -57 -7 45 c-16 110 -71 206 -177 307 -146 139 -346 228 -597 267 -76 12 -331 36 -387 36 -9 0 -10 -7 -4 -22z"/>
<path d="M2870 5679 c-113 -22 -220 -105 -268 -207 -24 -50 -27 -69 -27 -162 0 -95 3 -111 28 -162 56 -113 169 -191 305 -209 37 -4 128 -9 202 -9 121 0 139 -3 175 -23 115 -65 113 -249 -3 -315 -40 -22 -44 -22 -358 -20 l-317 3 -169 385 c-92 212 -176 396 -186 410 -25 34 -93 70 -171 92 -36 10 -66 16 -68 15 -4 -4 403 -930 460 -1047 l22 -45 390 0 390 0 67 32 c82 39 145 100 184 179 26 53 29 69 29 154 0 88 -3 101 -33 162 -40 82 -111 148 -190 179 -50 20 -82 24 -252 28 -208 7 -229 11 -277 63 -29 31 -53 90 -53 131 0 18 11 56 25 84 29 58 98 103 160 103 44 0 45 8 -30 -157 -53 -117 -53 -118 -33 -135 23 -21 70 -31 123 -26 l39 3 68 155 67 155 127 5 127 5 38 85 c21 47 38 88 38 93 1 10 -574 7 -629 -4z"/>
<path d="M5630 5363 l0 -117 -27 26 c-53 51 -119 61 -188 29 -78 -36 -115 -102 -115 -203 1 -101 50 -179 128 -203 68 -20 154 1 186 47 16 22 16 22 16 -10 0 -31 2 -32 40 -32 l40 0 0 290 0 290 -40 0 -40 0 0 -117z m-69 -128 c88 -46 93 -216 8 -260 -91 -47 -189 17 -189 123 1 112 94 182 181 137z"/>
<path d="M6838 5373 l-3 -58 -37 -3 c-36 -3 -38 -5 -38 -38 0 -33 1 -34 40 -34 l40 0 0 -146 0 -146 30 -29 c27 -27 35 -30 87 -27 57 3 58 3 61 36 3 31 2 32 -37 32 -62 0 -71 21 -71 162 l0 117 53 3 c50 3 52 4 55 35 l3 32 -53 3 -53 3 -3 58 -3 57 -34 0 -34 0 -3 -57z"/>
<path d="M4630 5304 c-79 -34 -123 -106 -124 -199 0 -126 70 -206 189 -213 108 -7 171 26 211 112 70 151 -30 316 -191 315 -27 0 -66 -7 -85 -15z m172 -91 c59 -59 57 -168 -4 -225 -54 -50 -149 -37 -188 27 -25 40 -27 123 -5 166 39 74 139 90 197 32z"/>
<path d="M5174 5306 c-17 -7 -40 -26 -52 -40 l-21 -27 -3 33 c-3 30 -6 33 -40 36 l-38 3 0 -205 0 -206 40 0 40 0 0 123 c0 171 26 216 123 217 38 0 38 0 35 38 -3 31 -7 37 -28 39 -14 2 -39 -3 -56 -11z"/>
<path d="M5883 5301 c-25 -12 -48 -32 -57 -50 -42 -81 2 -146 119 -175 78 -19 105 -38 105 -72 0 -67 -154 -71 -175 -4 -7 23 -18 24 -58 7 l-28 -12 23 -35 c65 -97 263 -100 306 -5 35 76 -2 142 -95 169 -120 35 -154 66 -117 107 12 13 30 19 60 19 35 0 47 -5 67 -30 21 -25 30 -29 56 -24 38 8 39 23 4 65 -50 60 -132 75 -210 40z"/>
<path d="M6494 5313 c-42 -8 -85 -55 -91 -100 -9 -72 35 -114 152 -142 59 -15 85 -35 85 -67 0 -63 -122 -73 -171 -14 -22 25 -31 30 -53 24 -39 -9 -41 -21 -11 -59 37 -49 78 -67 149 -68 104 -1 161 43 161 123 0 66 -28 94 -119 121 -85 25 -116 43 -116 69 0 30 28 50 71 50 31 0 47 -7 70 -29 26 -27 33 -29 59 -19 35 12 35 11 13 49 -31 53 -115 79 -199 62z"/>
<path d="M7254 5306 c-17 -8 -40 -27 -52 -42 l-21 -29 -1 38 c0 38 0 38 -37 35 -23 -2 -38 -8 -37 -15 1 -7 2 -98 3 -203 l1 -190 34 0 34 0 4 128 c5 172 28 212 123 212 34 0 35 1 35 40 0 37 -2 40 -27 40 -16 -1 -42 -7 -59 -14z"/>
<path d="M7494 5296 c-77 -36 -114 -100 -114 -194 0 -66 25 -127 66 -166 37 -34 121 -59 171 -50 53 9 115 47 136 83 l18 31 -26 10 c-37 14 -40 13 -73 -19 -56 -57 -151 -47 -192 21 -41 67 -39 68 140 68 l160 0 0 33 c0 84 -44 156 -115 188 -54 25 -110 23 -171 -5z m155 -62 c20 -15 57 -81 49 -89 -6 -6 -227 -9 -233 -3 -12 11 24 73 53 90 35 22 101 23 131 2z"/>
<path d="M7970 5311 c-42 -13 -70 -34 -92 -69 -22 -36 -17 -49 22 -53 17 -2 35 7 57 29 25 25 40 32 72 32 47 0 88 -31 93 -70 3 -24 0 -26 -77 -38 -108 -17 -165 -46 -189 -96 -17 -36 -18 -43 -5 -80 19 -53 60 -77 134 -77 59 0 116 25 131 59 6 13 9 9 13 -18 6 -33 8 -35 41 -32 19 2 35 5 35 5 0 1 -2 77 -5 169 l-5 167 -29 30 c-44 45 -126 63 -196 42z m150 -249 c0 -62 -52 -112 -117 -112 -69 0 -100 72 -47 107 21 13 100 35 157 42 4 1 7 -16 7 -37z"/>
<path d="M8453 5301 c-17 -11 -36 -28 -42 -38 -9 -16 -11 -14 -17 15 -6 28 -10 32 -40 32 l-34 0 0 -210 0 -210 39 0 40 0 3 151 3 151 33 29 c52 47 112 35 138 -26 10 -24 14 -76 14 -170 l0 -135 40 0 40 0 0 134 c0 73 5 147 11 165 18 50 83 75 131 50 37 -20 48 -69 48 -214 l0 -135 40 0 40 0 0 153 c0 174 -14 221 -72 257 -60 36 -159 19 -193 -34 l-18 -26 -31 36 c-28 33 -38 38 -87 41 -42 3 -61 0 -86 -16z"/>
<path d="M3840 5308 c0 -2 29 -93 63 -203 l64 -200 44 -3 45 -3 44 146 c24 81 47 148 50 150 4 2 27 -64 52 -148 l45 -152 43 0 43 0 63 200 c35 110 63 203 64 208 0 4 -17 7 -39 7 l-38 0 -44 -155 c-24 -85 -47 -155 -50 -155 -3 0 -23 62 -44 138 -50 177 -47 172 -95 172 -22 0 -40 -1 -40 -3 0 -7 -90 -310 -93 -313 -2 -2 -23 67 -48 154 l-44 157 -43 3 c-23 2 -42 2 -42 0z"/>
<path d="M2657 4837 l-47 -105 25 -56 25 -57 53 3 c58 3 54 -2 132 179 l33 76 -71 25 c-40 14 -79 28 -88 32 -12 5 -25 -15 -62 -97z"/>
</g>
</svg>